<svg xmlns="http://www.w3.org/2000/svg" xmlns:xlink="http://www.w3.org/1999/xlink" id="Layer_1" width="24.368" height="24.725" x="0" y="0" enable-background="new 0 0 24.368 24.725" version="1.1" viewBox="0 0 24.368 24.725" xml:space="preserve"><g><g><path fill="#82C9CB" d="M20.665,23.755H1.48c-0.265,0-0.48-0.214-0.48-0.48V4.09c0-0.265,0.214-0.48,0.48-0.48h19.185 c0.265,0,0.48,0.214,0.48,0.48v19.185C21.144,23.541,20.93,23.755,20.665,23.755z M1.959,22.796h18.226V4.57H1.959V22.796z"/></g></g><rect width="18.226" height="18.226" x="1.959" y="4.569" fill="#FFF"/><g><path fill="#09A0A5" d="M10.853,19.52c-0.252,0-0.529-0.101-0.73-0.302l-6.532-6.523l1.462-1.435l5.8,5.793L22.125,1l1.668,1.126 L11.585,19.218C11.383,19.419,11.106,19.52,10.853,19.52z"/></g></svg>